<?xml version="1.0" encoding="UTF-8" standalone="no"?>
<!-- Created with Inkscape (http://www.inkscape.org/) -->

<svg
   xmlns:dc="http://purl.org/dc/elements/1.1/"
   xmlns:cc="http://creativecommons.org/ns#"
   xmlns:rdf="http://www.w3.org/1999/02/22-rdf-syntax-ns#"
   xmlns:svg="http://www.w3.org/2000/svg"
   xmlns="http://www.w3.org/2000/svg"
   xmlns:xlink="http://www.w3.org/1999/xlink"
   xmlns:sodipodi="http://sodipodi.sourceforge.net/DTD/sodipodi-0.dtd"
   xmlns:inkscape="http://www.inkscape.org/namespaces/inkscape"
   width="793.70081"
   height="1122.5197"
   viewBox="0 0 210 297"
   version="1.1"
   id="svg4151"
   inkscape:version="0.92.5 (2060ec1f9f, 2020-04-08)"
   sodipodi:docname="izumi poster.svg"
   inkscape:export-filename="/media/neofox/C/Users/Brendo/Desktop/Imagens Para o Izumi/izumi poster.png"
   inkscape:export-xdpi="165.70476"
   inkscape:export-ydpi="165.70476">
  <defs
     id="defs4145">
    <linearGradient
       inkscape:collect="always"
       id="linearGradient5028">
      <stop
         style="stop-color:#0051ff;stop-opacity:1"
         offset="0"
         id="stop5024" />
      <stop
         style="stop-color:#ff67c1;stop-opacity:1"
         offset="1"
         id="stop5026" />
    </linearGradient>
    <linearGradient
       inkscape:collect="always"
       xlink:href="#linearGradient5028"
       id="linearGradient5030"
       x1="-0.0010335196"
       y1="136.66309"
       x2="209.8765"
       y2="296.97623"
       gradientUnits="userSpaceOnUse"
       gradientTransform="matrix(1.0000197,0,0,0.61239133,0.00103354,115.12167)" />
    <linearGradient
       inkscape:collect="always"
       xlink:href="#linearGradient5028"
       id="linearGradient37894"
       gradientUnits="userSpaceOnUse"
       gradientTransform="matrix(1.0810938,0,0,1.0810938,132.49152,-102.06071)"
       x1="88.313744"
       y1="149.40248"
       x2="92.305832"
       y2="158.11176" />
    <linearGradient
       inkscape:collect="always"
       xlink:href="#linearGradient5028"
       id="linearGradient70177"
       gradientUnits="userSpaceOnUse"
       gradientTransform="rotate(4,1306.5728,-432.97195)"
       x1="401.58582"
       y1="150.14005"
       x2="445.92584"
       y2="178.57753" />
  </defs>
  <sodipodi:namedview
     id="base"
     pagecolor="#ffffff"
     bordercolor="#666666"
     borderopacity="1.0"
     inkscape:pageopacity="0.0"
     inkscape:pageshadow="2"
     inkscape:zoom="0.5"
     inkscape:cx="720.0799"
     inkscape:cy="709.31812"
     inkscape:document-units="mm"
     inkscape:current-layer="layer1"
     showgrid="false"
     units="px"
     inkscape:window-width="1360"
     inkscape:window-height="719"
     inkscape:window-x="0"
     inkscape:window-y="0"
     inkscape:window-maximized="1" />
  <metadata
     id="metadata4148">
    <rdf:RDF>
      <cc:Work
         rdf:about="">
        <dc:format>image/svg+xml</dc:format>
        <dc:type
           rdf:resource="http://purl.org/dc/dcmitype/StillImage" />
        <dc:title></dc:title>
      </cc:Work>
    </rdf:RDF>
  </metadata>
  <g
     inkscape:label="Camada 1"
     inkscape:groupmode="layer"
     id="layer1"
     transform="translate(0,8.392334e-6)">
    <path
       id="path4205"
       style="fill:url(#linearGradient5030);fill-opacity:1;stroke:none;stroke-width:0.20705287px;stroke-linecap:butt;stroke-linejoin:miter;stroke-opacity:1"
       d="M 0,198.81296 V 297 h 210 v -98.18704 c -107.84705,-39.98391 -107.84654,42.04927 -210,0 z"
       inkscape:connector-curvature="0"
       sodipodi:nodetypes="ccccc" />
    <g
       style="display:inline"
       id="g72481"
       transform="translate(-117.56975,70.749665)"
       inkscape:export-filename="C:\Users\Brendo\Desktop\v7_full.png"
       inkscape:export-xdpi="778.09998"
       inkscape:export-ydpi="778.09998">
      <text
         xml:space="preserve"
         style="font-style:normal;font-weight:normal;font-size:50.79999924px;line-height:1.25;font-family:sans-serif;letter-spacing:0px;word-spacing:0px;fill:#3c2774;fill-opacity:1;stroke:none;stroke-width:0.26458299"
         x="152.55568"
         y="50.313934"
         id="text781-4"
         inkscape:export-filename="C:\Users\Brendo\Desktop\v6_star_full.png"
         inkscape:export-xdpi="778.09998"
         inkscape:export-ydpi="778.09998"><tspan
           sodipodi:role="line"
           id="tspan779-9"
           style="font-style:normal;font-variant:normal;font-weight:normal;font-stretch:normal;font-size:50.79999924px;font-family:'Dear Sunshine';-inkscape-font-specification:'Dear Sunshine';fill:#3c2774;fill-opacity:1;stroke-width:0.26458299"
           x="152.55568"
           y="50.313934">IZUMI</tspan></text>
      <text
         xml:space="preserve"
         style="font-style:normal;font-weight:normal;font-size:19.75559998px;line-height:1.25;font-family:sans-serif;letter-spacing:0px;word-spacing:0px;fill:#3c2774;fill-opacity:1;stroke:none;stroke-width:0.26458299"
         x="207.21286"
         y="68.881729"
         id="text3329-4"
         inkscape:export-filename="C:\Users\Brendo\Desktop\v6_star_full.png"
         inkscape:export-xdpi="778.09998"
         inkscape:export-ydpi="778.09998"><tspan
           sodipodi:role="line"
           id="tspan3327-3"
           style="font-style:normal;font-variant:normal;font-weight:normal;font-stretch:normal;font-size:19.75559998px;font-family:'Quicksand Light';-inkscape-font-specification:'Quicksand Light, ';fill:#3c2774;fill-opacity:1;stroke-width:0.26458299"
           x="207.21286"
           y="68.881729"
           dx="0 0 1">pr  ject</tspan></text>
      <path
         inkscape:connector-curvature="0"
         style="display:inline;fill:url(#linearGradient37894);fill-opacity:1;stroke:none;stroke-width:0.80000001;stroke-linecap:square;stroke-linejoin:round;stroke-miterlimit:4;stroke-dasharray:none;stroke-opacity:1;paint-order:stroke fill markers"
         d="m 232.26369,68.872319 0.0191,6.1e-4 c 0.69612,-0.72422 1.36097,-1.43557 2.13514,-2.08469 1.45485,-1.21985 3.47401,-2.44324 3.48309,-4.57351 0.009,-1.94546 -2.0845,-3.28398 -3.85476,-2.41234 -0.31961,0.15748 -0.59977,0.38123 -0.83332,0.64791 -0.20972,0.2395 -0.43506,0.5691 -0.54505,0.86832 l -0.0382,-0.002 c -0.0695,-0.29042 -0.25997,-0.63201 -0.4304,-0.87686 -1.12709,-1.61927 -3.61121,-1.49482 -4.56135,0.23947 -0.17238,0.31467 -0.27068,0.67652 -0.30367,1.03201 -0.19375,2.08784 1.52916,3.47914 2.87547,4.80172 0.75141,0.73814 1.43697,1.50663 2.05424,2.3588 z"
         id="path8828-0-5-2"
         inkscape:export-filename="C:\Users\Brendo\Desktop\v6_star_full.png"
         inkscape:export-xdpi="778.09998"
         inkscape:export-ydpi="778.09998" />
      <g
         id="g52853-8-0-7"
         transform="rotate(30,457.02651,-158.67536)"
         style="stroke-width:1;stroke-miterlimit:4;stroke-dasharray:none">
        <path
           inkscape:connector-curvature="0"
           id="rect49927-4-3-0-7"
           style="fill:url(#linearGradient70177);fill-opacity:1;stroke:#3c2774;stroke-width:1;stroke-linecap:round;stroke-linejoin:round;stroke-miterlimit:4;stroke-dasharray:none;stroke-opacity:0;paint-order:normal"
           d="m 363.1145,85.590925 44.232,3.093002 -1.9837,28.368203 -16.42368,-1.14845 -4.23405,9.26599 -8.27035,-10.14039 -15.30392,-1.07015 z"
           sodipodi:nodetypes="cccccccc" />
        <path
           inkscape:connector-curvature="0"
           style="display:inline;fill:#ffffff;fill-opacity:1;stroke:#ffffff;stroke-width:1;stroke-linejoin:round;stroke-miterlimit:4;stroke-dasharray:none;stroke-opacity:0;paint-order:normal"
           d="m 379.07595,108.31045 c -0.51772,-0.0532 -0.97066,-0.36527 -1.19014,-0.82022 -0.0905,-0.18436 -0.12047,-0.32093 -0.12981,-0.56305 l -0.009,-0.22051 0.29142,-1.71643 c 0.16024,-0.94402 0.29606,-1.74613 0.30177,-1.78246 0.0174,-0.11024 -0.0196,-0.28097 -0.0927,-0.42682 l -0.0662,-0.13378 -1.30999,-1.25587 c -0.72054,-0.69075 -1.345,-1.30118 -1.38772,-1.35648 -0.0895,-0.116068 -0.20744,-0.350008 -0.24776,-0.492148 -0.043,-0.15239 -0.0535,-0.51033 -0.0192,-0.67914 0.11344,-0.5631 0.54159,-1.0116 1.08602,-1.13784 0.056,-0.013 0.87505,-0.13686 1.82051,-0.27542 0.94547,-0.13856 1.76766,-0.26634 1.82711,-0.28395 0.0593,-0.0185 0.15214,-0.0609 0.20687,-0.0946 0.18274,-0.11742 0.21467,-0.16752 0.58763,-0.92035 1.21055,-2.44309 1.28636,-2.59184 1.38344,-2.71436 0.17903,-0.22614 0.47461,-0.4191 0.76284,-0.49823 0.18606,-0.0511 0.5843,-0.0522 0.77156,-0.002 0.36767,0.0983 0.69728,0.34687 0.88757,0.66973 0.0346,0.0581 0.41033,0.79842 0.83577,1.64465 0.56274,1.12031 0.79284,1.56376 0.84753,1.62964 0.0867,0.10519 0.21862,0.19922 0.34798,0.2478 0.065,0.0243 0.59108,0.10429 1.84488,0.27999 0.96468,0.13524 1.81358,0.26097 1.88641,0.27938 0.53793,0.13615 0.94739,0.56855 1.06296,1.12248 0.0351,0.16862 0.027,0.52666 -0.0148,0.67927 -0.0393,0.14254 -0.15561,0.37723 -0.2448,0.49426 -0.0427,0.056 -0.66169,0.669338 -1.37587,1.363178 -1.20094,1.16676 -1.30308,1.27029 -1.35969,1.37761 -0.0726,0.13757 -0.11511,0.31972 -0.10142,0.43483 0.005,0.0449 0.14358,0.83477 0.30716,1.75524 0.32736,1.8419 0.34059,1.94314 0.28762,2.20664 -0.0555,0.27582 -0.18522,0.52038 -0.38427,0.72359 -0.19435,0.19856 -0.39172,0.31844 -0.65786,0.39974 -0.1288,0.0403 -0.17303,0.0446 -0.39341,0.0462 -0.2571,0.002 -0.33338,-0.0106 -0.53774,-0.0854 -0.0501,-0.0185 -0.79921,-0.39918 -1.66474,-0.84607 -0.8655,-0.44686 -1.60725,-0.82409 -1.64833,-0.83831 -0.10268,-0.0355 -0.33023,-0.0458 -0.44468,-0.0204 -0.11719,0.0264 -0.0793,0.006 -1.80162,0.9093 -0.79443,0.41626 -1.48458,0.77458 -1.53369,0.79619 -0.19432,0.0854 -0.49325,0.12852 -0.73113,0.10397 z"
           id="path23050-8-8-0-7-2-2"
           inkscape:export-filename="C:\Users\Brendo\Desktop\v6_star_full.png"
           inkscape:export-xdpi="778.09998"
           inkscape:export-ydpi="778.09998" />
      </g>
      <path
         inkscape:connector-curvature="0"
         style="display:inline;fill:none;fill-opacity:1;stroke:#3c2774;stroke-width:1;stroke-linejoin:round;stroke-miterlimit:4;stroke-dasharray:none;stroke-opacity:1;paint-order:normal"
         d="m 256.02642,33.565849 c -0.42176,-0.30493 -0.65798,-0.80166 -0.62058,-1.3054 0.0138,-0.20491 0.0561,-0.33817 0.16911,-0.55252 l 0.10246,-0.19547 1.11059,-1.34076 c 0.61078,-0.73743 1.12946,-1.36416 1.15257,-1.39277 0.0702,-0.0868 0.12351,-0.25313 0.13313,-0.41599 l 0.01,-0.14896 -0.50655,-1.74261 c -0.27863,-0.95847 -0.51421,-1.79935 -0.52356,-1.8686 -0.0195,-0.14527 -0.005,-0.40684 0.0315,-0.5501 0.0389,-0.15347 0.20883,-0.46871 0.32294,-0.59775 0.37979,-0.43094 0.97483,-0.60528 1.50944,-0.44239 0.055,0.0167 0.82625,0.319 1.71432,0.67174 0.88808,0.35274 1.66401,0.65317 1.7243,0.66764 0.0606,0.0136 0.16221,0.0233 0.22645,0.0215 0.21697,-0.0103 0.26967,-0.0377 0.96908,-0.50323 2.26991,-1.5105 2.40994,-1.60142 2.55527,-1.65898 0.26812,-0.10633 0.62058,-0.12565 0.90976,-0.0501 0.18668,0.0488 0.53212,0.24694 0.66919,0.38405 0.26926,0.26896 0.43043,0.64903 0.43379,1.02378 9.2e-4,0.0676 -0.0439,0.89662 -0.0985,1.8422 -0.0728,1.25158 -0.0953,1.75067 -0.0808,1.83507 0.0225,0.13445 0.0897,0.28184 0.17746,0.38859 0.0441,0.0536 0.45974,0.38586 1.45771,1.16492 0.76782,0.59946 1.44013,1.1328 1.49399,1.18516 0.39779,0.38687 0.53619,0.96607 0.35931,1.50357 -0.0539,0.16358 -0.23994,0.4696 -0.35245,0.58087 -0.1053,0.10379 -0.32338,0.24888 -0.45913,0.30564 -0.065,0.0272 -0.90771,0.24882 -1.87313,0.49261 -1.62342,0.40998 -1.76364,0.44857 -1.86633,0.5132 -0.13166,0.0828 -0.25955,0.21933 -0.30525,0.32587 -0.0181,0.0414 -0.29304,0.79472 -0.61161,1.67366 -0.63745,1.75881 -0.67661,1.8531 -0.85423,2.05482 -0.18598,0.21111 -0.4206,0.35805 -0.69459,0.43451 -0.26759,0.0748 -0.49846,0.0799 -0.76959,0.0172 -0.13169,-0.0295 -0.17215,-0.0479 -0.3638,-0.15669 -0.22366,-0.12682 -0.28342,-0.17587 -0.423,-0.34283 -0.0341,-0.0411 -0.49254,-0.74531 -1.01867,-1.56509 -0.52612,-0.81974 -0.97988,-1.51731 -1.00834,-1.55016 -0.0712,-0.0821 -0.26309,-0.20478 -0.37491,-0.24001 -0.11469,-0.0357 -0.0717,-0.0344 -2.01489,-0.11333 -0.89613,-0.0367 -1.67298,-0.0715 -1.72631,-0.0773 -0.21099,-0.0232 -0.49143,-0.13532 -0.68517,-0.27552 z"
         id="path23050-8-8-9-4-6"
         inkscape:export-filename="C:\Users\Brendo\Desktop\v6_star_full.png"
         inkscape:export-xdpi="778.09998"
         inkscape:export-ydpi="778.09998" />
      <path
         inkscape:connector-curvature="0"
         id="rect49927-6-0-6"
         style="fill:none;stroke:#3c2774;stroke-width:1;stroke-linecap:round;stroke-linejoin:round;stroke-miterlimit:4;stroke-dasharray:none;stroke-opacity:1;paint-order:normal"
         d="m 284.95592,23.116809 4.03774,1.63135 -10.65287,26.36677 -15.26497,-6.16744 -6.89016,7.50409 -4.73202,-12.19976 -14.2242,-5.74694 2.29308,-5.67555 m 1.78716,-4.42337 6.57263,-16.2678557 32.01394,12.9344697"
         sodipodi:nodetypes="ccccccccccc" />
    </g>
    <g
       transform="matrix(0,0,0,0,0,0)"
       style="fill:none"
       id="g5871">
      <path
         style="clip-rule:evenodd;fill:currentColor;fill-rule:evenodd"
         inkscape:connector-curvature="0"
         d="m 1.25,10 a 8.75,8.75 0 1 0 17.5,0 8.75,8.75 0 0 0 -17.5,0 z m 16,0 a 7.25,7.25 0 1 1 -14.5,0 7.25,7.25 0 0 1 14.5,0 z"
         id="path5861" />
      <path
         style="clip-rule:evenodd;fill:currentColor;fill-rule:evenodd"
         inkscape:connector-curvature="0"
         d="m 6.25,10 c 0,4.522 1.491,8.25 3.75,8.25 2.259,0 3.75,-3.728 3.75,-8.25 C 13.75,5.478 12.259,1.75 10,1.75 7.741,1.75 6.25,5.478 6.25,10 Z m 6,0 c 0,3.762 -1.195,6.75 -2.25,6.75 -1.055,0 -2.25,-2.988 -2.25,-6.75 0,-3.762 1.195,-6.75 2.25,-6.75 1.055,0 2.25,2.988 2.25,6.75 z"
         id="path5863" />
      <path
         style="fill:currentColor"
         inkscape:connector-curvature="0"
         d="M 3.602,5.467 4.608,4.355 c 0.1,0.09 0.209,0.18 0.325,0.267 1.271,0.952 3.3,1.54 5.515,1.54 1.891,0 3.652,-0.427 4.931,-1.158 0.308,-0.176 0.582,-0.367 0.819,-0.57 l 0.974,1.141 C 16.862,5.84 16.511,6.085 16.124,6.305 14.608,7.173 12.59,7.661 10.448,7.661 7.926,7.661 5.583,6.983 4.033,5.822 A 6.063,6.063 0 0 1 3.602,5.467 Z"
         id="path5865" />
      <path
         style="fill:currentColor"
         inkscape:connector-curvature="0"
         d="m 3.602,14.549 1.006,1.112 c 0.1,-0.091 0.209,-0.18 0.325,-0.267 1.271,-0.952 3.3,-1.54 5.515,-1.54 1.891,0 3.652,0.427 4.931,1.158 0.308,0.176 0.582,0.367 0.819,0.57 l 0.974,-1.141 a 6.841,6.841 0 0 0 -1.048,-0.73 c -1.516,-0.868 -3.534,-1.356 -5.676,-1.356 -2.522,0 -4.865,0.678 -6.415,1.839 a 6.06,6.06 0 0 0 -0.431,0.355 z"
         id="path5867" />
      <path
         style="fill:currentColor"
         inkscape:connector-curvature="0"
         d="m 1.75,10.75 v -1.5 h 16.5 v 1.5 z"
         id="path5869" />
    </g>
    <g
       transform="matrix(0.64736845,0,0,0.64736845,8.7379925,255.74555)"
       style="fill:#ffffff"
       id="g6193">
      <path
         style="fill:#ffffff"
         inkscape:connector-curvature="0"
         d="m 23.643,4.937 c -0.835,0.37 -1.732,0.62 -2.675,0.733 A 4.67,4.67 0 0 0 23.016,3.092 9.3,9.3 0 0 1 20.058,4.222 4.66,4.66 0 0 0 12.12,8.472 13.229,13.229 0 0 1 2.518,3.604 c -0.4,0.69 -0.63,1.49 -0.63,2.342 A 4.66,4.66 0 0 0 3.96,9.824 4.647,4.647 0 0 1 1.85,9.241 v 0.06 a 4.66,4.66 0 0 0 3.737,4.568 4.692,4.692 0 0 1 -2.104,0.08 4.661,4.661 0 0 0 4.352,3.234 9.348,9.348 0 0 1 -5.786,1.995 9.5,9.5 0 0 1 -1.112,-0.065 13.175,13.175 0 0 0 7.14,2.093 c 8.57,0 13.255,-7.098 13.255,-13.254 0,-0.2 -0.005,-0.402 -0.014,-0.602 a 9.47,9.47 0 0 0 2.323,-2.41 z"
         id="path6191" />
    </g>
    <g
       transform="matrix(0.90327451,0,0,0.90327451,9.4680315,239.66075)"
       style="fill:#ffffff"
       id="g6231">
      <path
         inkscape:connector-curvature="0"
         d="M 13.545,2.907 A 13.227,13.227 0 0 0 10.288,1.896 0.05,0.05 0 0 0 10.236,1.921 C 10.095,2.171 9.939,2.498 9.83,2.754 a 12.19,12.19 0 0 0 -3.658,0 A 8.258,8.258 0 0 0 5.76,1.921 0.051,0.051 0 0 0 5.708,1.896 C 4.583,2.09 3.488,2.43 2.451,2.907 A 0.041,0.041 0 0 0 2.43,2.925 c -2.074,3.099 -2.643,6.122 -2.364,9.107 0.001,0.014 0.01,0.028 0.021,0.037 a 13.276,13.276 0 0 0 3.995,2.02 0.05,0.05 0 0 0 0.056,-0.019 C 4.446,13.65 4.72,13.207 4.956,12.741 A 0.05,0.05 0 0 0 4.946,12.682 0.051,0.051 0 0 0 4.928,12.671 8.875,8.875 0 0 1 3.68,12.076 0.05,0.05 0 0 1 3.66,12.01 0.051,0.051 0 0 1 3.675,11.991 c 0.084,-0.063 0.168,-0.129 0.248,-0.195 a 0.05,0.05 0 0 1 0.051,-0.007 c 2.619,1.196 5.454,1.196 8.041,0 a 0.052,0.052 0 0 1 0.053,0.007 c 0.08,0.066 0.164,0.132 0.248,0.195 a 0.051,0.051 0 0 1 -0.004,0.085 8.254,8.254 0 0 1 -1.249,0.594 0.05,0.05 0 0 0 -0.03,0.03 0.052,0.052 0 0 0 0.003,0.041 c 0.24,0.465 0.515,0.909 0.817,1.329 a 0.05,0.05 0 0 0 0.056,0.019 13.235,13.235 0 0 0 4.001,-2.02 0.049,0.049 0 0 0 0.021,-0.037 C 16.265,8.581 15.372,5.583 13.565,2.926 a 0.034,0.034 0 0 0 -0.02,-0.019 z m -8.198,7.307 c -0.789,0 -1.438,-0.724 -1.438,-1.612 0,-0.889 0.637,-1.613 1.438,-1.613 0.807,0 1.45,0.73 1.438,1.613 0,0.888 -0.637,1.612 -1.438,1.612 z m 5.316,0 c -0.788,0 -1.438,-0.724 -1.438,-1.612 0,-0.889 0.637,-1.613 1.438,-1.613 0.807,0 1.451,0.73 1.438,1.613 0,0.888 -0.631,1.612 -1.438,1.612 z"
         id="path6229"
         style="fill:#ffffff" />
    </g>
    <g
       transform="matrix(0.72352668,0,0,0.72352668,9.4588845,223.3585)"
       style="fill:#ffffff"
       id="g6269">
      <path
         style="clip-rule:evenodd;fill:#ffffff;fill-rule:evenodd"
         inkscape:connector-curvature="0"
         d="m 1.25,10 a 8.75,8.75 0 1 0 17.5,0 8.75,8.75 0 0 0 -17.5,0 z m 16,0 a 7.25,7.25 0 1 1 -14.5,0 7.25,7.25 0 0 1 14.5,0 z"
         id="path6259" />
      <path
         style="clip-rule:evenodd;fill:#ffffff;fill-rule:evenodd"
         inkscape:connector-curvature="0"
         d="m 6.25,10 c 0,4.522 1.491,8.25 3.75,8.25 2.259,0 3.75,-3.728 3.75,-8.25 C 13.75,5.478 12.259,1.75 10,1.75 7.741,1.75 6.25,5.478 6.25,10 Z m 6,0 c 0,3.762 -1.195,6.75 -2.25,6.75 -1.055,0 -2.25,-2.988 -2.25,-6.75 0,-3.762 1.195,-6.75 2.25,-6.75 1.055,0 2.25,2.988 2.25,6.75 z"
         id="path6261" />
      <path
         style="fill:#ffffff"
         inkscape:connector-curvature="0"
         d="M 3.602,5.467 4.608,4.355 c 0.1,0.09 0.209,0.18 0.325,0.267 1.271,0.952 3.3,1.54 5.515,1.54 1.891,0 3.652,-0.427 4.931,-1.158 0.308,-0.176 0.582,-0.367 0.819,-0.57 l 0.974,1.141 C 16.862,5.84 16.511,6.085 16.124,6.305 14.608,7.173 12.59,7.661 10.448,7.661 7.926,7.661 5.583,6.983 4.033,5.822 A 6.063,6.063 0 0 1 3.602,5.467 Z"
         id="path6263" />
      <path
         style="fill:#ffffff"
         inkscape:connector-curvature="0"
         d="m 3.602,14.549 1.006,1.112 c 0.1,-0.091 0.209,-0.18 0.325,-0.267 1.271,-0.952 3.3,-1.54 5.515,-1.54 1.891,0 3.652,0.427 4.931,1.158 0.308,0.176 0.582,0.367 0.819,0.57 l 0.974,-1.141 a 6.841,6.841 0 0 0 -1.048,-0.73 c -1.516,-0.868 -3.534,-1.356 -5.676,-1.356 -2.522,0 -4.865,0.678 -6.415,1.839 a 6.06,6.06 0 0 0 -0.431,0.355 z"
         id="path6265" />
      <path
         style="fill:#ffffff"
         inkscape:connector-curvature="0"
         d="m 1.75,10.75 v -1.5 h 16.5 v 1.5 z"
         id="path6267" />
    </g>
    <path
       inkscape:connector-curvature="0"
       style="fill:#ffffff;stroke-width:0.6258651"
       d="M 21.701109,275.76422 H 11.687264 c -0.688451,0 -1.245471,0.56328 -1.245471,1.25173 l -0.0063,7.51038 c 0,0.68846 0.563279,1.25174 1.251729,1.25174 h 10.013837 c 0.68845,0 1.25174,-0.56328 1.25174,-1.25174 v -7.51038 c 0,-0.68845 -0.56329,-1.25173 -1.25174,-1.25173 z m -0.25035,2.65993 -4.42486,2.76632 c -0.20028,0.12518 -0.46315,0.12518 -0.66342,0 l -4.42487,-2.76632 a 0.53198532,0.53198532 0 1 1 0.56328,-0.90124 l 4.1933,2.62237 4.19329,-2.62237 a 0.53198532,0.53198532 0 1 1 0.56328,0.90124 z"
       id="path6361" />
    <text
       xml:space="preserve"
       style="font-style:normal;font-weight:normal;font-size:10.58333302px;line-height:1.25;font-family:sans-serif;letter-spacing:0px;word-spacing:0px;fill:#000000;fill-opacity:1;stroke:none;stroke-width:0.26458332"
       x="27.605394"
       y="232.25894"
       id="text6397"><tspan
         sodipodi:role="line"
         id="tspan6395"
         x="27.605394"
         y="232.25894"
         style="font-style:normal;font-variant:normal;font-weight:normal;font-stretch:normal;font-size:7.76111126px;font-family:'Quicksand Medium';-inkscape-font-specification:'Quicksand Medium, ';fill:#ffffff;stroke-width:0.26458332">izumiproject.com.br</tspan></text>
    <text
       xml:space="preserve"
       style="font-style:normal;font-weight:normal;font-size:10.58333302px;line-height:1.25;font-family:sans-serif;letter-spacing:0px;word-spacing:0px;fill:#000000;fill-opacity:1;stroke:none;stroke-width:0.26458332"
       x="27.760616"
       y="249.14281"
       id="text6397-8"><tspan
         sodipodi:role="line"
         id="tspan6395-1"
         x="27.760616"
         y="249.14281"
         style="font-style:normal;font-variant:normal;font-weight:normal;font-stretch:normal;font-size:7.76111126px;font-family:'Quicksand Medium';-inkscape-font-specification:'Quicksand Medium, ';fill:#ffffff;stroke-width:0.26458332">discord.gg/u7gFSNQfNy</tspan></text>
    <text
       xml:space="preserve"
       style="font-style:normal;font-weight:normal;font-size:10.58333302px;line-height:1.25;font-family:sans-serif;letter-spacing:0px;word-spacing:0px;fill:#000000;fill-opacity:1;stroke:none;stroke-width:0.26458332"
       x="27.752855"
       y="265.83948"
       id="text6397-8-6"><tspan
         sodipodi:role="line"
         id="tspan6395-1-9"
         x="27.752855"
         y="265.83948"
         style="font-style:normal;font-variant:normal;font-weight:normal;font-stretch:normal;font-size:7.76111126px;font-family:'Quicksand Medium';-inkscape-font-specification:'Quicksand Medium, ';fill:#ffffff;stroke-width:0.26458332">@izumi_project</tspan></text>
    <text
       xml:space="preserve"
       style="font-style:normal;font-weight:normal;font-size:10.58333302px;line-height:1.25;font-family:sans-serif;letter-spacing:0px;word-spacing:0px;fill:#000000;fill-opacity:1;stroke:none;stroke-width:0.26458332"
       x="27.760616"
       y="282.8645"
       id="text6397-8-1"><tspan
         sodipodi:role="line"
         id="tspan6395-1-3"
         x="27.760616"
         y="282.8645"
         style="font-style:normal;font-variant:normal;font-weight:normal;font-stretch:normal;font-size:7.76111126px;font-family:'Quicksand Medium';-inkscape-font-specification:'Quicksand Medium, ';fill:#ffffff;stroke-width:0.26458332">contato@izumiproject.com.br</tspan></text>
  </g>
</svg>
